<svg width="830" height="370" viewBox="0 0 830 370" fill="none" xmlns="http://www.w3.org/2000/svg">
	<g opacity="0.04">
		<path d="M0 365.076V4.92396H121.044C149.148 4.92396 172.12 10.0238 189.962 20.2234C207.92 30.3058 221.214 43.9639 229.843 61.1977C238.473 78.4316 242.787 97.6584 242.787 118.878C242.787 140.098 238.473 159.384 229.843 176.735C221.331 194.086 208.153 207.92 190.312 218.237C172.47 228.436 149.614 233.536 121.744 233.536H34.9838V194.848H120.344C139.585 194.848 155.036 191.507 166.698 184.824C178.359 178.142 186.813 169.114 192.061 157.742C197.425 146.253 200.107 133.298 200.107 118.878C200.107 104.458 197.425 91.5621 192.061 80.1901C186.813 68.8181 178.301 59.9081 166.523 53.4601C154.745 46.8948 139.119 43.6122 119.645 43.6122H43.3799V365.076H0Z" fill="#202020" />
		<path d="M312.668 365.076V4.92396H433.711C461.698 4.92396 484.671 9.73067 502.629 19.3441C520.588 28.8403 533.882 41.9122 542.511 58.5599C551.14 75.2076 555.455 94.1413 555.455 115.361C555.455 136.581 551.14 155.398 542.511 171.811C533.882 188.224 520.646 201.12 502.804 210.499C484.963 219.761 462.165 224.392 434.411 224.392H336.456V185H433.012C452.136 185 467.529 182.186 479.19 176.559C490.968 170.932 499.481 162.959 504.728 152.643C510.093 142.208 512.775 129.781 512.775 115.361C512.775 100.941 510.093 88.3381 504.728 77.5523C499.364 66.7665 490.793 58.4427 479.015 52.5808C467.238 46.6017 451.67 43.6122 432.312 43.6122H356.047V365.076H312.668ZM481.289 203.289L569.448 365.076H519.072L432.312 203.289H481.289Z" fill="#202020" />
		<path d="M930 185C930 222.985 923.178 255.811 909.534 283.479C895.891 311.147 877.175 332.484 853.386 347.49C829.597 362.497 802.426 370 771.873 370C741.321 370 714.15 362.497 690.361 347.49C666.572 332.484 647.856 311.147 634.212 283.479C620.568 255.811 613.747 222.985 613.747 185C613.747 147.015 620.568 114.189 634.212 86.5209C647.856 58.853 666.572 37.5159 690.361 22.5095C714.15 7.50317 741.321 0 771.873 0C802.426 0 829.597 7.50317 853.386 22.5095C877.175 37.5159 895.891 58.853 909.534 86.5209C923.178 114.189 930 147.015 930 185ZM888.02 185C888.02 153.815 882.83 127.495 872.452 106.041C862.19 84.5865 848.255 68.3492 830.646 57.3289C813.154 46.3086 793.563 40.7985 771.873 40.7985C750.183 40.7985 730.534 46.3086 712.926 57.3289C695.434 68.3492 681.499 84.5865 671.12 106.041C660.858 127.495 655.727 153.815 655.727 185C655.727 216.185 660.858 242.505 671.12 263.959C681.499 285.413 695.434 301.651 712.926 312.671C730.534 323.691 750.183 329.202 771.873 329.202C793.563 329.202 813.154 323.691 830.646 312.671C848.255 301.651 862.19 285.413 872.452 263.959C882.83 242.505 888.02 216.185 888.02 185Z" fill="#202020" />
	</g>
</svg>
